<svg xmlns="http://www.w3.org/2000/svg" width="90" height="90" fill="none" viewBox="0 0 90 90"><path fill="#F1F5F7" d="M84.2136 17.4854h-5.6729v-1.4182c0-2.3498-1.9049-4.2547-4.2547-4.2547h-8.5093v.0326a5.5963 5.5963 0 0 0-3.5285 1.2169L45.3274 26.7038a4.2406 4.2406 0 0 0-3.6604-2.1273H18.9754c-2.3498 0-4.2546 1.9049-4.2546 4.2547v9.9275H7.6297c-2.3498 0-4.2547 1.9049-4.2547 4.2547v19.8551c.0076 1.8014 1.1489 3.4029 2.8492 3.9979 0 .0851-.0128.1702-.0128.2567 0 5.4829 4.4448 9.9276 9.9276 9.9276s9.9275-4.4447 9.9275-9.9276h8.5094c-.0062 5.3 4.1518 9.6702 9.4456 9.9275 5.2937.2573 9.856-3.6891 10.3638-8.9647.5078-5.2756-3.218-10.0197-8.4637-10.7769V45.9633l19.9587-20.4749c.4279 1.9503 2.1544 3.3406 4.1511 3.3428h2.8364v8.5093c0 1.5665 1.2699 2.8364 2.8365 2.8364v11.428c-4.0717.4383-7.0911 2.733-7.0911 5.5907s3.0194 5.1524 7.0911 5.5906v11.428c0 .7833.6349 1.4183 1.4182 1.4183.7833 0 1.4182-.635 1.4182-1.4183v-2.9187c4.0717-.4382 7.0911-2.7329 7.0911-5.5906 0-2.8577-3.0194-5.1524-7.0911-5.5906v-5.8374c4.0717-.4383 7.0911-2.7329 7.0911-5.5907 0-2.8577-3.0194-5.1523-7.0911-5.5906v-2.9187c1.5665 0 2.8365-1.2699 2.8365-2.8364v-8.5093h2.8364c2.3498 0 4.2547-1.9049 4.2547-4.2547V21.74c0-2.3497-1.9049-4.2546-4.2547-4.2546Zm-12.764 39.7102c0-1.1346 1.7501-2.3727 4.2547-2.7273v5.4545c-2.5046-.3545-4.2547-1.5926-4.2547-2.7272Zm11.3458 8.5093c0 1.1346-1.7501 2.3727-4.2547 2.7272v-5.4544c2.5046.3545 4.2547 1.5926 4.2547 2.7272Zm0-17.0187c0 1.1346-1.7501 2.3727-4.2547 2.7273V45.959c2.5046.3546 4.2547 1.5927 4.2547 2.7272Zm-7.0911-32.619v1.4182h-4.2745a5.6322 5.6322 0 0 0-.746-2.8365h3.6022c.7833 0 1.4183.635 1.4183 1.4183Zm-32.6191 12.764v19.855H26.0665c-.7832 0-1.4182-.6349-1.4182-1.4182V27.4129H41.667c.7832 0 1.4182.635 1.4182 1.4183ZM6.2114 62.8685V43.0134c0-.7833.635-1.4183 1.4183-1.4183h7.0911V57.309c-3.6953.539-6.777 3.1031-7.979 6.6387a1.3926 1.3926 0 0 1-.5304-1.0792Zm9.9276 11.3457c-3.9163 0-7.0911-3.1748-7.0911-7.0911s3.1748-7.0911 7.0911-7.0911 7.0911 3.1748 7.0911 7.0911c-.0047 3.9144-3.1767 7.0864-7.0911 7.0911Zm9.5092-9.9275c-1.1125-3.7002-4.2675-6.4211-8.091-6.9777V28.8312c0-.7833.635-1.4183 1.4182-1.4183h2.8365V47.268c0 2.3498 1.9049 4.2547 4.2546 4.2547h17.0187v5.7863c-3.8208.5592-6.9725 3.2796-8.0839 6.9777h-9.3531Zm25.9463 2.8364c0 3.9163-3.1748 7.0911-7.0911 7.0911s-7.0911-3.1748-7.0911-7.0911 3.1748-7.0911 7.0911-7.0911c3.9144.0047 7.0864 3.1768 7.0911 7.0911ZM45.9216 29.865l18.1065-14.5935a2.8236 2.8236 0 0 1 3.971.4397 2.7374 2.7374 0 0 1 .5914 2.0436 4.2406 4.2406 0 0 0-2.784 3.7527L45.9216 41.8958V29.865Zm32.6191 7.4755h-2.8364v-8.5093h2.8364v8.5093Zm7.0911-12.764c0 .7833-.6349 1.4182-1.4182 1.4182H70.0314c-.7833 0-1.4182-.6349-1.4182-1.4182V21.74c0-.7832.6349-1.4182 1.4182-1.4182h14.1822c.7833 0 1.4182.635 1.4182 1.4182v2.8365Z"/><path fill="#F1F5F7" d="M28.903 34.5041a1.4183 1.4183 0 0 0 1.0027-.4156l1.4182-1.4182c.5375-.5565.5298-1.441-.0173-1.9881-.547-.547-1.4316-.5547-1.9881-.0172l-1.4182 1.4182a1.4182 1.4182 0 0 0 1.0027 2.4209ZM28.903 41.5952a1.4187 1.4187 0 0 0 1.0027-.4155l8.5093-8.5094c.5375-.5565.5298-1.441-.0173-1.9881-.547-.547-1.4316-.5547-1.9881-.0172l-8.5093 8.5093a1.4183 1.4183 0 0 0 1.0027 2.4209ZM16.1389 62.8684c-2.3498 0-4.2547 1.9049-4.2547 4.2547 0 2.3498 1.9049 4.2546 4.2547 4.2546 2.3498 0 4.2546-1.9048 4.2546-4.2546s-1.9048-4.2547-4.2546-4.2547Zm0 5.6729c-.7833 0-1.4182-.635-1.4182-1.4182 0-.7833.6349-1.4182 1.4182-1.4182.7832 0 1.4182.6349 1.4182 1.4182 0 .7832-.635 1.4182-1.4182 1.4182ZM40.2487 67.1231c0 2.3498 1.9049 4.2546 4.2547 4.2546 2.3498 0 4.2546-1.9048 4.2546-4.2546s-1.9048-4.2547-4.2546-4.2547-4.2547 1.9049-4.2547 4.2547Zm5.6729 0c0 .7832-.635 1.4182-1.4182 1.4182-.7833 0-1.4182-.635-1.4182-1.4182 0-.7833.6349-1.4182 1.4182-1.4182.7832 0 1.4182.6349 1.4182 1.4182ZM27.4846 54.3591h-1.4182c-.7832 0-1.4182.635-1.4182 1.4182 0 .7833.635 1.4183 1.4182 1.4183h1.4182c.7833 0 1.4183-.635 1.4183-1.4183 0-.7832-.635-1.4182-1.4183-1.4182Z"/></svg>